<svg width="400" height="400" xmlns="http://www.w3.org/2000/svg">
  <!-- Fondo base de madera -->
  <rect width="100%" height="100%" fill="#8B4513"/>
  
  <!-- Vetas de madera horizontales -->
  <rect x="0" y="0" width="400" height="2" fill="#A0522D"/>
  <rect x="0" y="10" width="400" height="2" fill="#A0522D"/>
  <rect x="0" y="20" width="400" height="2" fill="#A0522D"/>
  <rect x="0" y="30" width="400" height="2" fill="#A0522D"/>
  <rect x="0" y="40" width="400" height="2" fill="#A0522D"/>
  <rect x="0" y="50" width="400" height="2" fill="#A0522D"/>
  <rect x="0" y="60" width="400" height="2" fill="#A0522D"/>
  <rect x="0" y="70" width="400" height="2" fill="#A0522D"/>
  <rect x="0" y="80" width="400" height="2" fill="#A0522D"/>
  <rect x="0" y="90" width="400" height="2" fill="#A0522D"/>
  <rect x="0" y="100" width="400" height="2" fill="#A0522D"/>
  <rect x="0" y="110" width="400" height="2" fill="#A0522D"/>
  <rect x="0" y="120" width="400" height="2" fill="#A0522D"/>
  <rect x="0" y="130" width="400" height="2" fill="#A0522D"/>
  <rect x="0" y="140" width="400" height="2" fill="#A0522D"/>
  <rect x="0" y="150" width="400" height="2" fill="#A0522D"/>
  <rect x="0" y="160" width="400" height="2" fill="#A0522D"/>
  <rect x="0" y="170" width="400" height="2" fill="#A0522D"/>
  <rect x="0" y="180" width="400" height="2" fill="#A0522D"/>
  <rect x="0" y="190" width="400" height="2" fill="#A0522D"/>
  <rect x="0" y="200" width="400" height="2" fill="#A0522D"/>
  <rect x="0" y="210" width="400" height="2" fill="#A0522D"/>
  <rect x="0" y="220" width="400" height="2" fill="#A0522D"/>
  <rect x="0" y="230" width="400" height="2" fill="#A0522D"/>
  <rect x="0" y="240" width="400" height="2" fill="#A0522D"/>
  <rect x="0" y="250" width="400" height="2" fill="#A0522D"/>
  <rect x="0" y="260" width="400" height="2" fill="#A0522D"/>
  <rect x="0" y="270" width="400" height="2" fill="#A0522D"/>
  <rect x="0" y="280" width="400" height="2" fill="#A0522D"/>
  <rect x="0" y="290" width="400" height="2" fill="#A0522D"/>
  <rect x="0" y="300" width="400" height="2" fill="#A0522D"/>
  <rect x="0" y="310" width="400" height="2" fill="#A0522D"/>
  <rect x="0" y="320" width="400" height="2" fill="#A0522D"/>
  <rect x="0" y="330" width="400" height="2" fill="#A0522D"/>
  <rect x="0" y="340" width="400" height="2" fill="#A0522D"/>
  <rect x="0" y="350" width="400" height="2" fill="#A0522D"/>
  <rect x="0" y="360" width="400" height="2" fill="#A0522D"/>
  <rect x="0" y="370" width="400" height="2" fill="#A0522D"/>
  <rect x="0" y="380" width="400" height="2" fill="#A0522D"/>
  <rect x="0" y="390" width="400" height="2" fill="#A0522D"/>
  <rect x="0" y="398" width="400" height="2" fill="#A0522D"/>
  
  <!-- Nudos de madera -->
  <circle cx="50" cy="30" r="8" fill="#5D2906" opacity="0.6"/>
  <circle cx="150" cy="70" r="12" fill="#5D2906" opacity="0.6"/>
  <circle cx="250" cy="120" r="10" fill="#5D2906" opacity="0.6"/>
  <circle cx="350" cy="180" r="15" fill="#5D2906" opacity="0.6"/>
  <circle cx="100" cy="250" r="11" fill="#5D2906" opacity="0.6"/>
  <circle cx="300" cy="320" r="9" fill="#5D2906" opacity="0.6"/>
  <circle cx="200" cy="370" r="13" fill="#5D2906" opacity="0.6"/>
  
  <!-- Rayas diagonales para textura -->
  <line x1="0" y1="0" x2="400" y2="400" stroke="#A0522D" stroke-width="0.5" opacity="0.2"/>
  <line x1="0" y1="50" x2="350" y2="400" stroke="#A0522D" stroke-width="0.5" opacity="0.2"/>
  <line x1="0" y1="100" x2="300" y2="400" stroke="#A0522D" stroke-width="0.5" opacity="0.2"/>
  <line x1="0" y1="150" x2="250" y2="400" stroke="#A0522D" stroke-width="0.5" opacity="0.2"/>
  <line x1="0" y1="200" x2="200" y2="400" stroke="#A0522D" stroke-width="0.5" opacity="0.2"/>
  <line x1="0" y1="250" x2="150" y2="400" stroke="#A0522D" stroke-width="0.5" opacity="0.2"/>
  <line x1="0" y1="300" x2="100" y2="400" stroke="#A0522D" stroke-width="0.5" opacity="0.2"/>
  <line x1="0" y1="350" x2="50" y2="400" stroke="#A0522D" stroke-width="0.5" opacity="0.2"/>
</svg>