<svg width="800" height="800" xmlns="http://www.w3.org/2000/svg">
  <!-- Fondo base de madera -->
  <rect width="100%" height="100%" fill="#8B4513"/>
  
  <!-- Vetas de madera horizontales más detalladas -->
  <g stroke="#A0522D" stroke-width="1">
    <line x1="0" y1="0" x2="800" y2="0"/>
    <line x1="0" y1="5" x2="800" y2="5"/>
    <line x1="0" y1="12" x2="800" y2="12"/>
    <line x1="0" y1="18" x2="800" y2="18"/>
    <line x1="0" y1="25" x2="800" y2="25"/>
    <line x1="0" y1="32" x2="800" y2="32"/>
    <line x1="0" y1="40" x2="800" y2="40"/>
    <line x1="0" y1="48" x2="800" y2="48"/>
    <line x1="0" y1="56" x2="800" y2="56"/>
    <line x1="0" y1="64" x2="800" y2="64"/>
    <line x1="0" y1="72" x2="800" y2="72"/>
    <line x1="0" y1="80" x2="800" y2="80"/>
    <line x1="0" y1="88" x2="800" y2="88"/>
    <line x1="0" y1="96" x2="800" y2="96"/>
    <line x1="0" y1="104" x2="800" y2="104"/>
    <line x1="0" y1="112" x2="800" y2="112"/>
    <line x1="0" y1="120" x2="800" y2="120"/>
    <line x1="0" y1="128" x2="800" y2="128"/>
    <line x1="0" y1="136" x2="800" y2="136"/>
    <line x1="0" y1="144" x2="800" y2="144"/>
    <line x1="0" y1="152" x2="800" y2="152"/>
    <line x1="0" y1="160" x2="800" y2="160"/>
    <line x1="0" y1="168" x2="800" y2="168"/>
    <line x1="0" y1="176" x2="800" y2="176"/>
    <line x1="0" y1="184" x2="800" y2="184"/>
    <line x1="0" y1="192" x2="800" y2="192"/>
    <line x1="0" y1="200" x2="800" y2="200"/>
    <line x1="0" y1="208" x2="800" y2="208"/>
    <line x1="0" y1="216" x2="800" y2="216"/>
    <line x1="0" y1="224" x2="800" y2="224"/>
    <line x1="0" y1="232" x2="800" y2="232"/>
    <line x1="0" y1="240" x2="800" y2="240"/>
    <line x1="0" y1="248" x2="800" y2="248"/>
    <line x1="0" y1="256" x2="800" y2="256"/>
    <line x1="0" y1="264" x2="800" y2="264"/>
    <line x1="0" y1="272" x2="800" y2="272"/>
    <line x1="0" y1="280" x2="800" y2="280"/>
    <line x1="0" y1="288" x2="800" y2="288"/>
    <line x1="0" y1="296" x2="800" y2="296"/>
    <line x1="0" y1="304" x2="800" y2="304"/>
    <line x1="0" y1="312" x2="800" y2="312"/>
    <line x1="0" y1="320" x2="800" y2="320"/>
    <line x1="0" y1="328" x2="800" y2="328"/>
    <line x1="0" y1="336" x2="800" y2="336"/>
    <line x1="0" y1="344" x2="800" y2="344"/>
    <line x1="0" y1="352" x2="800" y2="352"/>
    <line x1="0" y1="360" x2="800" y2="360"/>
    <line x1="0" y1="368" x2="800" y2="368"/>
    <line x1="0" y1="376" x2="800" y2="376"/>
    <line x1="0" y1="384" x2="800" y2="384"/>
    <line x1="0" y1="392" x2="800" y2="392"/>
    <line x1="0" y1="400" x2="800" y2="400"/>
    <line x1="0" y1="408" x2="800" y2="408"/>
    <line x1="0" y1="416" x2="800" y2="416"/>
    <line x1="0" y1="424" x2="800" y2="424"/>
    <line x1="0" y1="432" x2="800" y2="432"/>
    <line x1="0" y1="440" x2="800" y2="440"/>
    <line x1="0" y1="448" x2="800" y2="448"/>
    <line x1="0" y1="456" x2="800" y2="456"/>
    <line x1="0" y1="464" x2="800" y2="464"/>
    <line x1="0" y1="472" x2="800" y2="472"/>
    <line x1="0" y1="480" x2="800" y2="480"/>
    <line x1="0" y1="488" x2="800" y2="488"/>
    <line x1="0" y1="496" x2="800" y2="496"/>
    <line x1="0" y1="504" x2="800" y2="504"/>
    <line x1="0" y1="512" x2="800" y2="512"/>
    <line x1="0" y1="520" x2="800" y2="520"/>
    <line x1="0" y1="528" x2="800" y2="528"/>
    <line x1="0" y1="536" x2="800" y2="536"/>
    <line x1="0" y1="544" x2="800" y2="544"/>
    <line x1="0" y1="552" x2="800" y2="552"/>
    <line x1="0" y1="560" x2="800" y2="560"/>
    <line x1="0" y1="568" x2="800" y2="568"/>
    <line x1="0" y1="576" x2="800" y2="576"/>
    <line x1="0" y1="584" x2="800" y2="584"/>
    <line x1="0" y1="592" x2="800" y2="592"/>
    <line x1="0" y1="600" x2="800" y2="600"/>
    <line x1="0" y1="608" x2="800" y2="608"/>
    <line x1="0" y1="616" x2="800" y2="616"/>
    <line x1="0" y1="624" x2="800" y2="624"/>
    <line x1="0" y1="632" x2="800" y2="632"/>
    <line x1="0" y1="640" x2="800" y2="640"/>
    <line x1="0" y1="648" x2="800" y2="648"/>
    <line x1="0" y1="656" x2="800" y2="656"/>
    <line x1="0" y1="664" x2="800" y2="664"/>
    <line x1="0" y1="672" x2="800" y2="672"/>
    <line x1="0" y1="680" x2="800" y2="680"/>
    <line x1="0" y1="688" x2="800" y2="688"/>
    <line x1="0" y1="696" x2="800" y2="696"/>
    <line x1="0" y1="704" x2="800" y2="704"/>
    <line x1="0" y1="712" x2="800" y2="712"/>
    <line x1="0" y1="720" x2="800" y2="720"/>
    <line x1="0" y1="728" x2="800" y2="728"/>
    <line x1="0" y1="736" x2="800" y2="736"/>
    <line x1="0" y1="744" x2="800" y2="744"/>
    <line x1="0" y1="752" x2="800" y2="752"/>
    <line x1="0" y1="760" x2="800" y2="760"/>
    <line x1="0" y1="768" x2="800" y2="768"/>
    <line x1="0" y1="776" x2="800" y2="776"/>
    <line x1="0" y1="784" x2="800" y2="784"/>
    <line x1="0" y1="792" x2="800" y2="792"/>
    <line x1="0" y1="800" x2="800" y2="800"/>
  </g>
  
  <!-- Nudos de madera más grandes y variados -->
  <circle cx="100" cy="60" r="16" fill="#5D2906" opacity="0.7"/>
  <circle cx="100" cy="60" r="8" fill="#7A3C08" opacity="0.8"/>
  
  <circle cx="300" cy="140" r="24" fill="#5D2906" opacity="0.7"/>
  <circle cx="300" cy="140" r="12" fill="#7A3C08" opacity="0.8"/>
  
  <circle cx="500" cy="240" r="20" fill="#5D2906" opacity="0.7"/>
  <circle cx="500" cy="240" r="10" fill="#7A3C08" opacity="0.8"/>
  
  <circle cx="700" cy="360" r="30" fill="#5D2906" opacity="0.7"/>
  <circle cx="700" cy="360" r="15" fill="#7A3C08" opacity="0.8"/>
  
  <circle cx="200" cy="500" r="22" fill="#5D2906" opacity="0.7"/>
  <circle cx="200" cy="500" r="11" fill="#7A3C08" opacity="0.8"/>
  
  <circle cx="600" cy="640" r="18" fill="#5D2906" opacity="0.7"/>
  <circle cx="600" cy="640" r="9" fill="#7A3C08" opacity="0.8"/>
  
  <circle cx="400" cy="740" r="26" fill="#5D2906" opacity="0.7"/>
  <circle cx="400" cy="740" r="13" fill="#7A3C08" opacity="0.8"/>
  
  <!-- Variaciones de color para realce -->
  <rect x="0" y="0" width="800" height="800" fill="url(#woodTexture)" opacity="0.2"/>
  
  <!-- Definición de patrón para textura adicional -->
  <defs>
    <pattern id="woodPattern" x="0" y="0" width="40" height="40" patternUnits="userSpaceOnUse">
      <rect width="40" height="40" fill="#8B4513"/>
      <path d="M0,20 Q10,15 20,20 T40,20" stroke="#A0522D" stroke-width="0.5" fill="none" opacity="0.3"/>
      <circle cx="10" cy="10" r="1" fill="#5D2906" opacity="0.2"/>
      <circle cx="30" cy="30" r="1.5" fill="#5D2906" opacity="0.2"/>
    </pattern>
    
    <linearGradient id="woodTexture" x1="0" y1="0" x2="1" y2="1">
      <stop offset="0%" stop-color="#CD853F" stop-opacity="0.1"/>
      <stop offset="50%" stop-color="#A0522D" stop-opacity="0.1"/>
      <stop offset="100%" stop-color="#8B4513" stop-opacity="0.1"/>
    </linearGradient>
  </defs>
  
  <!-- Aplicación del patrón -->
  <rect x="0" y="0" width="800" height="800" fill="url(#woodPattern)"/>
</svg>