<svg xmlns="http://www.w3.org/2000/svg" viewBox="0 0 600 400">
  <!-- Mesa de madera -->
  <rect x="50" y="100" width="500" height="250" rx="20" ry="20" fill="#8b4513"/>
  
  <!-- Participantes en la cata -->
  <g transform="translate(100, 50)">
    <!-- Persona 1 -->
    <circle cx="20" cy="20" r="15" fill="#f8d9b7"/>
    <rect x="15" y="35" width="10" height="20" fill="#3498db"/>
    <rect x="12" y="55" width="4" height="15" fill="#f8d9b7"/>
    <rect x="24" y="55" width="4" height="15" fill="#f8d9b7"/>
    <!-- Jarra de cerveza -->
    <path d="M35,40 L40,70 L45,70 L50,40 Z" fill="#f5deb3"/>
    <path d="M35,40 Q40,35 45,38 Q50,35 52,40 Q50,37 48,36 Q42,35 38,36 Q35,37 35,40" fill="#fff8e1"/>
    <path d="M38,42 L40,68 L45,68 L47,42 Z" fill="#ffd700"/>
  </g>
  
  <g transform="translate(200, 50)">
    <!-- Persona 2 -->
    <circle cx="20" cy="20" r="15" fill="#f8d9b7"/>
    <rect x="15" y="35" width="10" height="20" fill="#e74c3c"/>
    <rect x="12" y="55" width="4" height="15" fill="#f8d9b7"/>
    <rect x="24" y="55" width="4" height="15" fill="#f8d9b7"/>
    <!-- Jarra de cerveza -->
    <path d="M35,40 L40,70 L45,70 L50,40 Z" fill="#f5deb3"/>
    <path d="M35,40 Q40,35 45,38 Q50,35 52,40 Q50,37 48,36 Q42,35 38,36 Q35,37 35,40" fill="#fff8e1"/>
    <path d="M38,42 L40,68 L45,68 L47,42 Z" fill="#d2691e"/>
  </g>
  
  <g transform="translate(300, 50)">
    <!-- Persona 3 -->
    <circle cx="20" cy="20" r="15" fill="#f8d9b7"/>
    <rect x="15" y="35" width="10" height="20" fill="#2ecc71"/>
    <rect x="12" y="55" width="4" height="15" fill="#f8d9b7"/>
    <rect x="24" y="55" width="4" height="15" fill="#f8d9b7"/>
    <!-- Jarra de cerveza -->
    <path d="M35,40 L40,70 L45,70 L50,40 Z" fill="#f5deb3"/>
    <path d="M35,40 Q40,35 45,38 Q50,35 52,40 Q50,37 48,36 Q42,35 38,36 Q35,37 35,40" fill="#fff8e1"/>
    <path d="M38,42 L40,68 L45,68 L47,42 Z" fill="#1c1c1c"/>
  </g>
  
  <g transform="translate(400, 50)">
    <!-- Persona 4 -->
    <circle cx="20" cy="20" r="15" fill="#f8d9b7"/>
    <rect x="15" y="35" width="10" height="20" fill="#9b59b6"/>
    <rect x="12" y="55" width="4" height="15" fill="#f8d9b7"/>
    <rect x="24" y="55" width="4" height="15" fill="#f8d9b7"/>
    <!-- Jarra de cerveza -->
    <path d="M35,40 L40,70 L45,70 L50,40 Z" fill="#f5deb3"/>
    <path d="M35,40 Q40,35 45,38 Q50,35 52,40 Q50,37 48,36 Q42,35 38,36 Q35,37 35,40" fill="#fff8e1"/>
    <path d="M38,42 L40,68 L45,68 L47,42 Z" fill="#ffc0cb"/>
  </g>
  
  <!-- Fila inferior de jarras de cerveza -->
  <g transform="translate(100, 180)">
    <!-- IPA -->
    <path d="M15,20 L25,180 L35,180 L45,20 Z" fill="#f5deb3"/>
    <path d="M15,20 Q25,10 35,15 Q45,10 50,20 Q45,12 40,10 Q30,8 20,10 Q15,12 15,20" fill="#fff8e1"/>
    <path d="M20,25 L25,175 L35,175 L40,25 Z" fill="#ffd700"/>
    <circle cx="30" cy="50" r="2" fill="#fff"/>
    <circle cx="32" cy="70" r="1.5" fill="#fff"/>
    <circle cx="28" cy="90" r="1.8" fill="#fff"/>
    <text x="30" y="200" font-family="Arial" font-size="10" fill="#333" text-anchor="middle">IPA</text>
  </g>
  
  <g transform="translate(170, 180)">
    <!-- Stout -->
    <path d="M15,20 L25,180 L35,180 L45,20 Z" fill="#f5deb3"/>
    <path d="M15,20 Q25,10 35,15 Q45,10 50,20 Q45,12 40,10 Q30,8 20,10 Q15,12 15,20" fill="#fff8e1"/>
    <path d="M20,25 L25,175 L35,175 L40,25 Z" fill="#1c1c1c"/>
    <ellipse cx="30" cy="18" rx="6" ry="2" fill="#ffffff" opacity="0.8"/>
    <text x="30" y="200" font-family="Arial" font-size="10" fill="#333" text-anchor="middle">STOUT</text>
  </g>
  
  <g transform="translate(240, 180)">
    <!-- Lager -->
    <path d="M15,20 L25,180 L35,180 L45,20 Z" fill="#f5deb3"/>
    <path d="M15,20 Q25,10 35,15 Q45,10 50,20 Q45,12 40,10 Q30,8 20,10 Q15,12 15,20" fill="#fff8e1"/>
    <path d="M20,25 L25,175 L35,175 L40,25 Z" fill="#ffec8b"/>
    <circle cx="30" cy="50" r="1.5" fill="#fff"/>
    <circle cx="32" cy="70" r="1" fill="#fff"/>
    <circle cx="28" cy="90" r="1.2" fill="#fff"/>
    <circle cx="31" cy="110" r="1.5" fill="#fff"/>
    <circle cx="29" cy="130" r="1" fill="#fff"/>
    <text x="30" y="200" font-family="Arial" font-size="10" fill="#333" text-anchor="middle">LAGER</text>
  </g>
  
  <g transform="translate(310, 180)">
    <!-- Ale -->
    <path d="M15,20 L25,180 L35,180 L45,20 Z" fill="#f5deb3"/>
    <path d="M15,20 Q25,10 35,15 Q45,10 50,20 Q45,12 40,10 Q30,8 20,10 Q15,12 15,20" fill="#fff8e1"/>
    <path d="M20,25 L25,175 L35,175 L40,25 Z" fill="#d2691e"/>
    <circle cx="30" cy="50" r="1.8" fill="#fff"/>
    <circle cx="32" cy="70" r="1.2" fill="#fff"/>
    <circle cx="28" cy="90" r="1.5" fill="#fff"/>
    <text x="30" y="200" font-family="Arial" font-size="10" fill="#333" text-anchor="middle">ALE</text>
  </g>
  
  <g transform="translate(380, 180)">
    <!-- Sour -->
    <path d="M15,20 L25,180 L35,180 L45,20 Z" fill="#f5deb3"/>
    <path d="M15,20 Q25,10 35,15 Q45,10 50,20 Q45,12 40,10 Q30,8 20,10 Q15,12 15,20" fill="#fff8e1"/>
    <path d="M20,25 L25,175 L35,175 L40,25 Z" fill="#ffc0cb"/>
    <circle cx="30" cy="50" r="1.2" fill="#fff"/>
    <circle cx="32" cy="48" r="1" fill="#fff"/>
    <circle cx="28" cy="55" r="1.1" fill="#fff"/>
    <circle cx="31" cy="65" r="1.2" fill="#fff"/>
    <circle cx="29" cy="62" r="1" fill="#fff"/>
    <text x="30" y="200" font-family="Arial" font-size="10" fill="#333" text-anchor="middle">SOUR</text>
  </g>
  
  <g transform="translate(450, 180)">
    <!-- Wheat -->
    <path d="M15,20 L25,180 L35,180 L45,20 Z" fill="#f5deb3"/>
    <path d="M15,20 Q25,10 35,15 Q45,10 50,20 Q45,12 40,10 Q30,8 20,10 Q15,12 15,20" fill="#fff8e1"/>
    <path d="M20,25 L25,175 L35,175 L40,25 Z" fill="#ffff99"/>
    <circle cx="30" cy="50" r="1.5" fill="#fff"/>
    <circle cx="32" cy="70" r="1" fill="#fff"/>
    <circle cx="28" cy="90" r="1.2" fill="#fff"/>
    <text x="30" y="200" font-family="Arial" font-size="10" fill="#333" text-anchor="middle">WHEAT</text>
  </g>
  
  <!-- Título -->
  <text x="300" y="50" font-family="Arial" font-size="24" fill="#3e2723" text-anchor="middle" font-weight="bold">CATA DE CERVEZAS</text>
  
  <!-- Descripción -->
  <text x="300" y="80" font-family="Arial" font-size="14" fill="#5d4037" text-anchor="middle">Experimenta nuestra selección artesanal</text>
</svg>