<svg xmlns="http://www.w3.org/2000/svg" viewBox="0 0 400 300">
  <!-- Grupo de cervezas -->
  
  <!-- Primera jarra - IPA -->
  <g transform="translate(50, 50)">
    <path d="M15,20 L25,180 L35,180 L45,20 Z" fill="#f5deb3"/>
    <path d="M15,20 Q25,10 35,15 Q45,10 50,20 Q45,12 40,10 Q30,8 20,10 Q15,12 15,20" fill="#fff8e1"/>
    <path d="M20,25 L25,175 L35,175 L40,25 Z" fill="#ffd700"/>
    <circle cx="30" cy="50" r="1.5" fill="#fff"/>
    <circle cx="32" cy="70" r="1" fill="#fff"/>
    <circle cx="28" cy="90" r="1.2" fill="#fff"/>
  </g>
  
  <!-- Segunda jarra - Stout -->
  <g transform="translate(120, 50)">
    <path d="M15,20 L25,180 L35,180 L45,20 Z" fill="#f5deb3"/>
    <path d="M15,20 Q25,10 35,15 Q45,10 50,20 Q45,12 40,10 Q30,8 20,10 Q15,12 15,20" fill="#fff8e1"/>
    <path d="M20,25 L25,175 L35,175 L40,25 Z" fill="#1c1c1c"/>
    <ellipse cx="30" cy="18" rx="6" ry="2" fill="#ffffff" opacity="0.8"/>
  </g>
  
  <!-- Tercera jarra - Lager -->
  <g transform="translate(190, 50)">
    <path d="M15,20 L25,180 L35,180 L45,20 Z" fill="#f5deb3"/>
    <path d="M15,20 Q25,10 35,15 Q45,10 50,20 Q45,12 40,10 Q30,8 20,10 Q15,12 15,20" fill="#fff8e1"/>
    <path d="M20,25 L25,175 L35,175 L40,25 Z" fill="#ffec8b"/>
    <circle cx="30" cy="50" r="1" fill="#fff"/>
    <circle cx="32" cy="70" r="0.8" fill="#fff"/>
    <circle cx="28" cy="90" r="1" fill="#fff"/>
    <circle cx="31" cy="110" r="0.8" fill="#fff"/>
    <circle cx="29" cy="130" r="1" fill="#fff"/>
  </g>
  
  <!-- Cuarta jarra - Ale -->
  <g transform="translate(260, 50)">
    <path d="M15,20 L25,180 L35,180 L45,20 Z" fill="#f5deb3"/>
    <path d="M15,20 Q25,10 35,15 Q45,10 50,20 Q45,12 40,10 Q30,8 20,10 Q15,12 15,20" fill="#fff8e1"/>
    <path d="M20,25 L25,175 L35,175 L40,25 Z" fill="#d2691e"/>
    <circle cx="30" cy="50" r="1.2" fill="#fff"/>
    <circle cx="32" cy="70" r="1" fill="#fff"/>
    <circle cx="28" cy="90" r="1.2" fill="#fff"/>
  </g>
  
  <!-- Quinta jarra - Sour -->
  <g transform="translate(330, 50)">
    <path d="M15,20 L25,180 L35,180 L45,20 Z" fill="#f5deb3"/>
    <path d="M15,20 Q25,10 35,15 Q45,10 50,20 Q45,12 40,10 Q30,8 20,10 Q15,12 15,20" fill="#fff8e1"/>
    <path d="M20,25 L25,175 L35,175 L40,25 Z" fill="#ffc0cb"/>
    <circle cx="30" cy="50" r="1" fill="#fff"/>
    <circle cx="32" cy="48" r="0.8" fill="#fff"/>
    <circle cx="28" cy="55" r="0.9" fill="#fff"/>
    <circle cx="31" cy="65" r="1" fill="#fff"/>
    <circle cx="29" cy="62" r="0.8" fill="#fff"/>
  </g>
  
  <!-- Título -->
  <text x="200" y="30" font-family="Arial" font-size="16" fill="#3e2723" text-anchor="middle" font-weight="bold">NUESTRA SELECCIÓN</text>
</svg>