<svg xmlns="http://www.w3.org/2000/svg" viewBox="0 0 200 300">
  <!-- Jarra de cerveza -->
  <path d="M60,80 L80,280 L120,280 L140,80 Z" fill="#f5deb3"/>
  
  <!-- Espuma -->
  <path d="M60,80 Q80,60 100,70 Q120,60 140,80 Q130,65 115,60 Q95,55 80,60 Q65,65 60,80" fill="#fff8e1"/>
  
  <!-- Líquido de Sour (color rosa pálido) -->
  <path d="M65,85 L75,275 L125,275 L135,85 Z" fill="#ffc0cb"/>
  
  <!-- Burbujas más abundantes para indicar acidez -->
  <circle cx="90" cy="120" r="2" fill="#fff"/>
  <circle cx="100" cy="115" r="1.5" fill="#fff"/>
  <circle cx="85" cy="130" r="1.8" fill="#fff"/>
  <circle cx="105" cy="140" r="2" fill="#fff"/>
  <circle cx="95" cy="150" r="1.5" fill="#fff"/>
  <circle cx="88" cy="165" r="2" fill="#fff"/>
  <circle cx="102" cy="175" r="1.8" fill="#fff"/>
  <circle cx="92" cy="190" r="2" fill="#fff"/>
  <circle cx="108" cy="200" r="1.5" fill="#fff"/>
  <circle cx="97" cy="215" r="2" fill="#fff"/>
  
  <!-- Etiqueta de la cerveza -->
  <rect x="85" y="140" width="30" height="20" rx="3" fill="#8b4513" opacity="0.7"/>
  <text x="100" y="155" font-family="Arial" font-size="8" fill="white" text-anchor="middle">SOUR</text>
</svg>