<svg xmlns="http://www.w3.org/2000/svg" viewBox="0 0 200 300">
  <!-- Jarra de cerveza -->
  <path d="M60,80 L80,280 L120,280 L140,80 Z" fill="#f5deb3"/>
  
  <!-- Espuma -->
  <path d="M60,80 Q80,60 100,70 Q120,60 140,80 Q130,65 115,60 Q95,55 80,60 Q65,65 60,80" fill="#fff8e1"/>
  
  <!-- Líquido de IPA (color ámbar claro) -->
  <path d="M65,85 L75,275 L125,275 L135,85 Z" fill="#ffd700"/>
  
  <!-- Burbujas -->
  <circle cx="90" cy="120" r="3" fill="#fff"/>
  <circle cx="100" cy="150" r="2" fill="#fff"/>
  <circle cx="85" cy="180" r="2.5" fill="#fff"/>
  <circle cx="105" cy="210" r="2" fill="#fff"/>
  <circle cx="95" cy="240" r="3" fill="#fff"/>
  
  <!-- Etiqueta de la cerveza -->
  <rect x="85" y="140" width="30" height="20" rx="3" fill="#8b4513" opacity="0.7"/>
  <text x="100" y="155" font-family="Arial" font-size="8" fill="white" text-anchor="middle">IPA</text>
</svg>