<svg xmlns="http://www.w3.org/2000/svg" viewBox="0 0 600 400">
  <!-- Pared de ladrillo -->
  <rect width="600" height="400" fill="#8b4513"/>
  
  <!-- Ladrillos -->
  <g fill="#a0522d">
    <rect x="0" y="0" width="100" height="50"/>
    <rect x="100" y="0" width="100" height="50"/>
    <rect x="200" y="0" width="100" height="50"/>
    <rect x="300" y="0" width="100" height="50"/>
    <rect x="400" y="0" width="100" height="50"/>
    <rect x="500" y="0" width="100" height="50"/>
    
    <rect x="50" y="50" width="100" height="50"/>
    <rect x="150" y="50" width="100" height="50"/>
    <rect x="250" y="50" width="100" height="50"/>
    <rect x="350" y="50" width="100" height="50"/>
    <rect x="450" y="50" width="100" height="50"/>
    <rect x="0" y="50" width="50" height="50"/>
    
    <rect x="0" y="100" width="100" height="50"/>
    <rect x="100" y="100" width="100" height="50"/>
    <rect x="200" y="100" width="100" height="50"/>
    <rect x="300" y="100" width="100" height="50"/>
    <rect x="400" y="100" width="100" height="50"/>
    <rect x="500" y="100" width="100" height="50"/>
    
    <rect x="50" y="150" width="100" height="50"/>
    <rect x="150" y="150" width="100" height="50"/>
    <rect x="250" y="150" width="100" height="50"/>
    <rect x="350" y="150" width="100" height="50"/>
    <rect x="450" y="150" width="100" height="50"/>
    <rect x="0" y="150" width="50" height="50"/>
    
    <rect x="0" y="200" width="100" height="50"/>
    <rect x="100" y="200" width="100" height="50"/>
    <rect x="200" y="200" width="100" height="50"/>
    <rect x="300" y="200" width="100" height="50"/>
    <rect x="400" y="200" width="100" height="50"/>
    <rect x="500" y="200" width="100" height="50"/>
    
    <rect x="50" y="250" width="100" height="50"/>
    <rect x="150" y="250" width="100" height="50"/>
    <rect x="250" y="250" width="100" height="50"/>
    <rect x="350" y="250" width="100" height="50"/>
    <rect x="450" y="250" width="100" height="50"/>
    <rect x="0" y="250" width="50" height="50"/>
    
    <rect x="0" y="300" width="100" height="50"/>
    <rect x="100" y="300" width="100" height="50"/>
    <rect x="200" y="300" width="100" height="50"/>
    <rect x="300" y="300" width="100" height="50"/>
    <rect x="400" y="300" width="100" height="50"/>
    <rect x="500" y="300" width="100" height="50"/>
    
    <rect x="50" y="350" width="100" height="50"/>
    <rect x="150" y="350" width="100" height="50"/>
    <rect x="250" y="350" width="100" height="50"/>
    <rect x="350" y="350" width="100" height="50"/>
    <rect x="450" y="350" width="100" height="50"/>
    <rect x="0" y="350" width="50" height="50"/>
  </g>
  
  <!-- Grifos de cerveza -->
  <g transform="translate(50, 50)">
    <rect x="0" y="0" width="40" height="120" fill="#b87333"/>
    <rect x="10" y="-20" width="8" height="20" fill="#b87333"/>
    <circle cx="14" cy="-25" r="8" fill="#ffd700"/>
    <text x="20" y="140" font-family="Arial" font-size="10" fill="white" text-anchor="middle">IPA</text>
  </g>
  
  <g transform="translate(120, 50)">
    <rect x="0" y="0" width="40" height="120" fill="#b87333"/>
    <rect x="10" y="-20" width="8" height="20" fill="#b87333"/>
    <circle cx="14" cy="-25" r="8" fill="#d2691e"/>
    <text x="20" y="140" font-family="Arial" font-size="10" fill="white" text-anchor="middle">ALE</text>
  </g>
  
  <g transform="translate(190, 50)">
    <rect x="0" y="0" width="40" height="120" fill="#b87333"/>
    <rect x="10" y="-20" width="8" height="20" fill="#b87333"/>
    <circle cx="14" cy="-25" r="8" fill="#ffec8b"/>
    <text x="20" y="140" font-family="Arial" font-size="10" fill="white" text-anchor="middle">LAGER</text>
  </g>
  
  <g transform="translate(260, 50)">
    <rect x="0" y="0" width="40" height="120" fill="#b87333"/>
    <rect x="10" y="-20" width="8" height="20" fill="#b87333"/>
    <circle cx="14" cy="-25" r="8" fill="#1c1c1c"/>
    <text x="20" y="140" font-family="Arial" font-size="10" fill="white" text-anchor="middle">STOUT</text>
  </g>
  
  <g transform="translate(330, 50)">
    <rect x="0" y="0" width="40" height="120" fill="#b87333"/>
    <rect x="10" y="-20" width="8" height="20" fill="#b87333"/>
    <circle cx="14" cy="-25" r="8" fill="#ffc0cb"/>
    <text x="20" y="140" font-family="Arial" font-size="10" fill="white" text-anchor="middle">SOUR</text>
  </g>
  
  <g transform="translate(400, 50)">
    <rect x="0" y="0" width="40" height="120" fill="#b87333"/>
    <rect x="10" y="-20" width="8" height="20" fill="#b87333"/>
    <circle cx="14" cy="-25" r="8" fill="#daa520"/>
    <text x="20" y="140" font-family="Arial" font-size="10" fill="white" text-anchor="middle">RESIN</text>
  </g>
  
  <g transform="translate(470, 50)">
    <rect x="0" y="0" width="40" height="120" fill="#b87333"/>
    <rect x="10" y="-20" width="8" height="20" fill="#b87333"/>
    <circle cx="14" cy="-25" r="8" fill="#ffbf00"/>
    <text x="20" y="140" font-family="Arial" font-size="10" fill="white" text-anchor="middle">WHEAT</text>
  </g>
  
  <g transform="translate(540, 50)">
    <rect x="0" y="0" width="40" height="120" fill="#b87333"/>
    <rect x="10" y="-20" width="8" height="20" fill="#b87333"/>
    <circle cx="14" cy="-25" r="8" fill="#bc8f8f"/>
    <text x="20" y="140" font-family="Arial" font-size="10" fill="white" text-anchor="middle">PORTER</text>
  </g>
  
  <!-- Título -->
  <text x="300" y="30" font-family="Arial" font-size="24" fill="white" text-anchor="middle" font-weight="bold">NUESTROS GRIFOS</text>
</svg>